<svg width="20" height="18" viewBox="0 0 20 18" fill="none" xmlns="http://www.w3.org/2000/svg">
<mask id="mask0_113_5" style="mask-type:alpha" maskUnits="userSpaceOnUse" x="0" y="0" width="20" height="18">
<path d="M9.28395 10.7147V6.42881C9.28395 6.23936 9.35921 6.05768 9.49317 5.92372C9.62713 5.78976 9.80882 5.7145 9.99826 5.7145C10.1877 5.7145 10.3694 5.78976 10.5034 5.92372C10.6373 6.05768 10.7126 6.23936 10.7126 6.42881V10.7147C10.7126 10.9041 10.6373 11.0858 10.5034 11.2198C10.3694 11.3537 10.1877 11.429 9.99826 11.429C9.80882 11.429 9.62713 11.3537 9.49317 11.2198C9.35921 11.0858 9.28395 10.9041 9.28395 10.7147ZM19.71 16.7846C19.5237 17.1122 19.2536 17.3842 18.9273 17.5727C18.601 17.7612 18.2304 17.8594 17.8536 17.8571H2.14293C1.76657 17.8571 1.39684 17.758 1.07096 17.5697C0.745072 17.3814 0.474517 17.1107 0.286515 16.7846C0.0985124 16.4586 -0.000306403 16.0888 7.13681e-07 15.7124C0.000307831 15.3361 0.0997301 14.9664 0.288264 14.6407L8.1436 1.06942C8.33184 0.744209 8.60229 0.47421 8.92782 0.286508C9.25334 0.0988062 9.6225 0 9.99827 0C10.374 0 10.7432 0.0988062 11.0687 0.286508C11.3942 0.47421 11.6647 0.744209 11.8529 1.06942L19.7083 14.6407C19.899 14.9656 19.9997 15.3356 20 15.7124C20.0003 16.0892 19.9002 16.4593 19.71 16.7846ZM18.4718 15.3563L10.6165 1.78509C10.5537 1.67669 10.4636 1.58669 10.3551 1.52413C10.2466 1.46156 10.1235 1.42863 9.99826 1.42863C9.87301 1.42863 9.74996 1.46156 9.64145 1.52413C9.53294 1.58669 9.44279 1.67669 9.38004 1.78509L1.5247 15.3563C1.46188 15.4649 1.42875 15.5881 1.42865 15.7136C1.42856 15.839 1.4615 15.9623 1.52416 16.0709C1.58683 16.1796 1.677 16.2699 1.78562 16.3326C1.89424 16.3954 2.01748 16.4285 2.14293 16.4285H17.8536C17.9791 16.4285 18.1023 16.3954 18.2109 16.3326C18.3195 16.2699 18.4097 16.1796 18.4724 16.0709C18.535 15.9623 18.568 15.839 18.5679 15.7136C18.5678 15.5881 18.5347 15.4649 18.4718 15.3563ZM9.99826 12.8576C9.78635 12.8576 9.57919 12.9205 9.40299 13.0382C9.22679 13.1559 9.08945 13.3233 9.00836 13.5191C8.92726 13.7148 8.90604 13.9303 8.94738 14.1381C8.98873 14.346 9.09077 14.5369 9.24062 14.6867C9.39047 14.8366 9.58139 14.9386 9.78923 14.98C9.99708 15.0213 10.2125 15.0001 10.4083 14.919C10.6041 14.8379 10.7714 14.7006 10.8892 14.5244C11.0069 14.3482 11.0697 14.141 11.0697 13.9291C11.0694 13.645 10.9564 13.3727 10.7556 13.1718C10.5547 12.9709 10.2823 12.8579 9.99826 12.8576Z" fill="black"/>
</mask>
<g mask="url(#mask0_113_5)">
<rect width="20" height="20" fill="white"/>
</g>
</svg>
