<svg width="20" height="23" viewBox="0 0 20 23" fill="none" xmlns="http://www.w3.org/2000/svg">
<mask id="mask0_110_10" style="mask-type:alpha" maskUnits="userSpaceOnUse" x="0" y="0" width="20" height="23">
<path d="M19.2372 5.62131C19.2167 5.62131 19.186 5.62131 19.1552 5.62131C13.7288 5.07764 8.31259 4.87249 2.94768 5.41616L0.855075 5.62131C0.424243 5.66234 0.0447015 5.35461 0.00366995 4.92378C-0.0373616 4.49294 0.270375 4.12366 0.690949 4.08263L2.78356 3.87747C8.24079 3.32355 13.7698 3.53896 19.3091 4.08263C19.7296 4.12366 20.0374 4.5032 19.9963 4.92378C19.9656 5.32383 19.627 5.62131 19.2372 5.62131Z" fill="#292D32"/>
<path d="M6.41598 4.58528C6.37495 4.58528 6.33391 4.58528 6.28262 4.57502C5.87231 4.50321 5.58509 4.10316 5.65689 3.69284L5.88257 2.34906C6.04669 1.3643 6.27237 0 8.66241 0H11.35C13.7503 0 13.976 1.41559 14.1299 2.35931L14.3555 3.69284C14.4273 4.11341 14.1401 4.51347 13.7298 4.57502C13.3092 4.64682 12.9092 4.3596 12.8476 3.94929L12.622 2.61576C12.4784 1.72333 12.4476 1.54894 11.3602 1.54894H8.67267C7.58538 1.54894 7.56486 1.69255 7.41099 2.6055L7.17506 3.93903C7.11351 4.31857 6.78526 4.58528 6.41598 4.58528Z" fill="#292D32"/>
<path d="M13.2987 22.0545H6.7131C3.1331 22.0545 2.98948 20.0748 2.87665 18.4745L2.20989 8.1448C2.17911 7.72423 2.50736 7.35496 2.92794 7.32418C3.35877 7.30367 3.7178 7.62166 3.74857 8.04223L4.41533 18.372C4.52817 19.9312 4.5692 20.5158 6.7131 20.5158H13.2987C15.4528 20.5158 15.4939 19.9312 15.5964 18.372L16.2632 8.04223C16.294 7.62166 16.6633 7.30367 17.0838 7.32418C17.5044 7.35496 17.8327 7.71397 17.8019 8.1448L17.1351 18.4745C17.0223 20.0748 16.8787 22.0545 13.2987 22.0545Z" fill="#292D32"/>
<path d="M11.7083 16.4126H8.29243C7.87184 16.4126 7.52307 16.0638 7.52307 15.6432C7.52307 15.2227 7.87184 14.8739 8.29243 14.8739H11.7083C12.1289 14.8739 12.4777 15.2227 12.4777 15.6432C12.4777 16.0638 12.1289 16.4126 11.7083 16.4126Z" fill="#292D32"/>
<path d="M12.5699 12.3094H7.44097C7.0204 12.3094 6.67163 11.9607 6.67163 11.5401C6.67163 11.1195 7.0204 10.7708 7.44097 10.7708H12.5699C12.9905 10.7708 13.3393 11.1195 13.3393 11.5401C13.3393 11.9607 12.9905 12.3094 12.5699 12.3094Z" fill="#292D32"/>
</mask>
<g mask="url(#mask0_110_10)">
<rect width="20" height="23" fill="white"/>
</g>
</svg>
