<svg width="30" height="29" viewBox="0 0 30 29" fill="none" xmlns="http://www.w3.org/2000/svg">
<mask id="mask0_112_5" style="mask-type:alpha" maskUnits="userSpaceOnUse" x="0" y="0" width="30" height="29">
<path d="M27.9412 7.68894H22.1088C22.1678 7.63782 22.225 7.58554 22.2791 7.53144C23.1065 6.70405 23.5713 5.58184 23.5713 4.41175C23.5712 3.24166 23.1064 2.1195 22.279 1.29214C21.8693 0.882471 21.383 0.557507 20.8477 0.335801C20.3124 0.114095 19.7387 -1.00363e-05 19.1594 6.62092e-10C17.9893 2.02711e-05 16.8671 0.464856 16.0398 1.29225C15.579 1.78948 15.2251 2.37596 15 3.01541C14.7748 2.37597 14.4209 1.78949 13.9601 1.29225C13.1325 0.466201 12.0107 0.00251608 10.8414 0.00307672C9.67207 0.00363736 8.55079 0.468398 7.72394 1.29524C6.89709 2.12208 6.43232 3.24335 6.43174 4.41268C6.43117 5.58202 6.89484 6.70375 7.72088 7.5314C7.77502 7.58551 7.83217 7.63782 7.8912 7.68894H2.05882C1.51298 7.68955 0.989663 7.90666 0.603691 8.29263C0.21772 8.67861 0.000611877 9.20192 0 9.74777V14.4536C0.000611877 14.9995 0.21772 15.5228 0.603691 15.9088C0.989663 16.2948 1.51298 16.5119 2.05882 16.5125H2.35294V26.2184C2.35355 26.7642 2.57066 27.2875 2.95663 27.6735C3.3426 28.0595 3.86592 28.2766 4.41176 28.2772H25.5882C26.1341 28.2766 26.6574 28.0595 27.0434 27.6735C27.4293 27.2875 27.6464 26.7642 27.6471 26.2184V16.5125H27.9412C28.487 16.5119 29.0103 16.2948 29.3963 15.9088C29.7823 15.5228 29.9994 14.9995 30 14.4536V9.74777C29.9994 9.20192 29.7823 8.67861 29.3963 8.29263C29.0103 7.90666 28.487 7.68955 27.9412 7.68894ZM17.2876 2.54009C17.784 2.04366 18.4573 1.76477 19.1594 1.76477C19.8614 1.76477 20.5347 2.04365 21.0311 2.54007C21.5275 3.03649 21.8064 3.70978 21.8064 4.41183C21.8064 5.11387 21.5276 5.78717 21.0311 6.28359C20.1666 7.14817 17.7249 7.55517 15.9102 7.66047C16.0145 5.84705 16.4209 3.40686 17.2876 2.54009ZM8.96872 2.54009C9.46554 2.04441 10.1387 1.76604 10.8405 1.76604C11.5423 1.76604 12.2154 2.04441 12.7123 2.54009C13.5769 3.40467 13.9839 5.84644 14.0892 7.66108C12.2757 7.55678 9.83557 7.15036 8.96887 6.28358C8.47317 5.78678 8.19477 5.11368 8.19475 4.41188C8.19472 3.71008 8.47306 3.03693 8.96872 2.54009ZM1.76471 14.4536V9.74777C1.7648 9.66979 1.79582 9.59504 1.85096 9.5399C1.90609 9.48476 1.98085 9.45374 2.05882 9.45365H14.1176V14.7478H2.05882C1.98085 14.7477 1.90609 14.7167 1.85096 14.6615C1.79582 14.6064 1.7648 14.5316 1.76471 14.4536ZM4.11765 26.2184V16.5125H14.1176V26.5125H4.41176C4.33379 26.5124 4.25903 26.4814 4.20389 26.4262C4.14875 26.3711 4.11774 26.2963 4.11765 26.2184ZM25.8824 26.2184C25.8823 26.2963 25.8512 26.3711 25.7961 26.4262C25.741 26.4814 25.6662 26.5124 25.5882 26.5125H15.8824V16.5125H25.8824V26.2184ZM28.2353 14.4536C28.2352 14.5316 28.2042 14.6064 28.149 14.6615C28.0939 14.7167 28.0192 14.7477 27.9412 14.7478H15.8824V9.45365H27.9412C28.0192 9.45374 28.0939 9.48476 28.149 9.5399C28.2042 9.59504 28.2352 9.66979 28.2353 9.74777V14.4536Z" fill="black"/>
</mask>
<g mask="url(#mask0_112_5)">
<rect x="-30" y="-37" width="105" height="112" fill="white"/>
</g>
</svg>
